<svg style="position: absolute; width: 0; height: 0; overflow: hidden;" version="1.1" xmlns="http://www.w3.org/2000/svg">
<defs>
<symbol id="teicon-orcid" viewBox="0 0 32 32">
<title>orcid</title>
<path d="M20.468 12.601c-0.394-0.184-0.767-0.308-1.121-0.366-0.352-0.061-0.917-0.089-1.699-0.089h-2.031v8.451h2.082c0.812 0 1.443-0.056 1.893-0.167s0.826-0.25 1.126-0.422c0.301-0.17 0.576-0.38 0.827-0.63 0.802-0.814 1.203-1.841 1.203-3.083 0-1.22-0.412-2.216-1.236-2.987-0.304-0.286-0.654-0.523-1.045-0.708zM16.008 2.28c-7.579 0-13.721 6.144-13.721 13.721s6.142 13.721 13.721 13.721 13.721-6.144 13.721-13.721-6.142-13.721-13.721-13.721zM11.452 22.060h-1.626v-11.362h1.626v11.362zM10.638 9.511c-0.616 0-1.118-0.499-1.118-1.118 0-0.615 0.501-1.117 1.118-1.117 0.619 0 1.119 0.501 1.119 1.117-0.001 0.621-0.501 1.118-1.119 1.118zM23.993 18.562c-0.293 0.694-0.71 1.305-1.253 1.831-0.552 0.544-1.195 0.951-1.928 1.228-0.429 0.167-0.821 0.28-1.179 0.338-0.359 0.056-1.042 0.083-2.051 0.083h-3.594v-11.345h3.83c1.547 0 2.768 0.23 3.669 0.694 0.9 0.463 1.614 1.147 2.146 2.046 0.532 0.9 0.798 1.882 0.798 2.943 0.001 0.762-0.148 1.489-0.439 2.182z"></path>
</symbol>
<symbol id="teicon-orcid2" viewBox="0 0 27 32">
<title>orcid2</title>
<path d="M17.375 12.929c-0.6-0.311-1.414-0.463-2.45-0.463h-2.551v7.563h2.397c0.676 0 1.129-0.016 1.369-0.055 0.237-0.038 0.501-0.116 0.787-0.228 0.487-0.182 0.915-0.453 1.285-0.818 0.359-0.35 0.639-0.758 0.834-1.222 0.194-0.461 0.296-0.944 0.296-1.451 0-0.709-0.181-1.363-0.536-1.96-0.353-0.604-0.829-1.057-1.429-1.366zM17.413 18.251c-0.166 0.168-0.35 0.306-0.551 0.42-0.2 0.116-0.451 0.208-0.75 0.282s-0.72 0.111-1.262 0.111h-1.388v-5.634h1.355c0.524 0 0.896 0.021 1.131 0.059 0.236 0.039 0.485 0.122 0.75 0.245 0.26 0.123 0.492 0.279 0.694 0.47 0.55 0.516 0.822 1.179 0.822 1.992 0 0.829-0.266 1.509-0.8 2.055zM9.6 20.040h1.083v-7.574h-1.083v7.574zM25.933 3.789c-1.006-1.007-2.218-1.509-3.636-1.509h-17.151c-1.418 0-2.629 0.502-3.636 1.509-1.007 1.005-1.509 2.218-1.509 3.636v17.151c0 1.418 0.502 2.631 1.509 3.638 1.007 1.003 2.221 1.507 3.636 1.507h17.151c1.418 0 2.63-0.504 3.636-1.509 1.007-1.007 1.51-2.217 1.51-3.636v-17.151c0-1.418-0.503-2.631-1.51-3.636zM13.721 25.148c-5.052 0-9.147-4.097-9.147-9.147s4.096-9.147 9.147-9.147 9.147 4.097 9.147 9.147-4.096 9.147-9.147 9.147zM10.137 10.187c-0.408 0-0.741 0.334-0.741 0.742 0 0.414 0.333 0.743 0.741 0.743 0.414 0 0.75-0.329 0.75-0.743 0-0.408-0.335-0.742-0.75-0.742z"></path>
</symbol>
<symbol id="teicon-zotero" viewBox="0 0 27 32">
<title>zotero</title>
<path d="M3.665 2.28h19.778v3.904l-16.361 20.208h16.361v3.331h-21.155v-3.818l16.419-20.293h-15.042v-3.331z"></path>
</symbol>
<symbol id="teicon-zotero2" viewBox="0 0 27 32">
<title>zotero2</title>
<path d="M25.933 3.789c-1.006-1.007-2.218-1.509-3.636-1.509h-17.151c-1.418 0-2.629 0.502-3.636 1.509-1.007 1.005-1.509 2.218-1.509 3.636v17.151c0 1.418 0.502 2.631 1.509 3.638 1.007 1.003 2.221 1.507 3.636 1.507h17.151c1.418 0 2.63-0.504 3.636-1.509 1.007-1.007 1.51-2.217 1.51-3.636v-17.151c0-1.418-0.503-2.631-1.51-3.636zM20.774 9.456l-10.908 13.472h10.908v2.221h-14.104v-2.545l10.946-13.53h-10.028v-2.219h13.186v2.602z"></path>
</symbol>
<symbol id="teicon-figshare" viewBox="0 0 32 32">
<title>figshare</title>
<path d="M8.6 6.989c0.655 0.003 1.159-0.501 1.159-1.162 0-0.656-0.509-1.166-1.161-1.162-0.621 0.006-1.148 0.527-1.163 1.148-0.013 0.625 0.529 1.173 1.164 1.175zM27.935 18.717c-0.643 0-1.174 0.532-1.166 1.169 0.008 0.619 0.531 1.141 1.153 1.157 0.631 0.014 1.166-0.518 1.167-1.162 0.001-0.661-0.497-1.163-1.154-1.164zM23.378 6.989c0.653-0.001 1.156-0.515 1.148-1.172-0.006-0.654-0.524-1.162-1.175-1.15-0.62 0.011-1.145 0.541-1.148 1.161-0.003 0.63 0.536 1.164 1.175 1.162zM15.986 27.399c-0.643 0.002-1.179 0.539-1.167 1.167 0.013 0.619 0.54 1.143 1.158 1.156 0.632 0.014 1.164-0.518 1.165-1.165 0.001-0.661-0.496-1.161-1.156-1.158zM19.862 26.789c-0.639 0.005-1.154 0.52-1.153 1.153 0.001 0.625 0.526 1.151 1.156 1.155 0.645 0.005 1.166-0.523 1.159-1.177-0.006-0.64-0.515-1.135-1.163-1.131zM28.564 14.843c-0.64-0.003-1.162 0.499-1.175 1.13-0.013 0.63 0.539 1.188 1.167 1.183 0.628-0.005 1.146-0.529 1.146-1.162 0.003-0.644-0.495-1.149-1.138-1.151zM5.834 22.226c-0.647-0.002-1.147 0.489-1.153 1.135-0.006 0.653 0.521 1.187 1.162 1.178 0.625-0.009 1.149-0.544 1.147-1.167-0.003-0.631-0.519-1.146-1.156-1.146zM5.812 9.772c0.632 0.013 1.181-0.534 1.177-1.171-0.007-0.633-0.521-1.141-1.158-1.141-0.649 0.001-1.146 0.494-1.149 1.14-0.003 0.639 0.5 1.161 1.131 1.172zM19.867 5.207c0.639 0.003 1.163-0.525 1.158-1.171s-0.529-1.156-1.18-1.145c-0.624 0.010-1.14 0.542-1.133 1.166 0.006 0.62 0.533 1.145 1.155 1.149zM5.208 19.882c0.006-0.63-0.505-1.153-1.139-1.165-0.647-0.013-1.183 0.508-1.189 1.151-0.003 0.622 0.511 1.154 1.14 1.174 0.628 0.019 1.182-0.521 1.188-1.161zM26.143 9.763c0.625 0.008 1.157-0.515 1.162-1.143 0.006-0.636-0.503-1.15-1.142-1.155-0.64-0.003-1.157 0.501-1.164 1.134-0.007 0.625 0.516 1.157 1.145 1.164zM4.572 15.986c-0.002-0.643-0.503-1.141-1.148-1.139-0.641 0.001-1.141 0.507-1.138 1.15 0.003 0.638 0.518 1.155 1.149 1.15 0.632-0.003 1.138-0.521 1.137-1.162zM15.985 4.585c0.631 0.005 1.147-0.51 1.148-1.148 0.003-0.644-0.496-1.153-1.134-1.157-0.631-0.003-1.153 0.512-1.158 1.145-0.003 0.629 0.517 1.157 1.145 1.161zM26.143 22.228c-0.633 0.005-1.153 0.529-1.145 1.157 0.006 0.625 0.543 1.155 1.164 1.147 0.628-0.009 1.148-0.54 1.142-1.167-0.005-0.632-0.524-1.141-1.162-1.137zM26.781 12.096c-0.011 0.619 0.518 1.159 1.14 1.167 0.629 0.009 1.158-0.509 1.163-1.139 0.005-0.636-0.501-1.158-1.132-1.167-0.627-0.007-1.159 0.51-1.171 1.139zM4.050 13.264c0.635-0.001 1.139-0.518 1.137-1.159-0.001-0.64-0.51-1.149-1.146-1.145-0.638 0.003-1.141 0.513-1.138 1.156 0.001 0.639 0.512 1.151 1.147 1.148zM12.114 5.202c0.633-0.005 1.142-0.523 1.139-1.162-0.002-0.643-0.511-1.148-1.149-1.145-0.638 0.005-1.14 0.513-1.138 1.155 0.003 0.638 0.518 1.156 1.148 1.151zM8.6 25.010c-0.637 0.005-1.154 0.524-1.146 1.153 0.009 0.636 0.524 1.138 1.164 1.133 0.643-0.005 1.139-0.507 1.134-1.151-0.006-0.641-0.51-1.138-1.153-1.134zM23.373 25.011c-0.64-0.001-1.148 0.504-1.147 1.143 0.002 0.638 0.509 1.142 1.15 1.141 0.644 0 1.141-0.499 1.141-1.143 0-0.644-0.496-1.141-1.145-1.141zM12.124 26.796c-0.644-0.008-1.15 0.486-1.157 1.126-0.007 0.643 0.489 1.153 1.129 1.162 0.638 0.009 1.149-0.493 1.158-1.132 0.008-0.641-0.488-1.15-1.13-1.156zM19.813 6.564c0.014 0.525 0.468 0.97 0.988 0.972 0.545 0.001 0.98-0.449 0.976-1.004-0.005-0.536-0.442-0.974-0.976-0.974-0.528 0-1.003 0.484-0.988 1.006zM6.544 19.834c-0.555 0-0.965 0.412-0.966 0.968 0 0.55 0.415 0.978 0.958 0.988s1.004-0.453 0.995-0.999c-0.009-0.545-0.434-0.957-0.987-0.957zM8.501 7.527c-0.543-0.002-0.984 0.422-0.995 0.957-0.011 0.536 0.453 0.995 1.002 0.988 0.542-0.005 0.971-0.438 0.97-0.978s-0.432-0.966-0.976-0.967zM26.462 13.352c-0.524-0.002-0.983 0.453-0.984 0.978-0.002 0.525 0.455 0.987 0.979 0.987 0.526 0.001 0.982-0.453 0.986-0.978 0.001-0.527-0.453-0.984-0.98-0.987zM8.499 24.469c0.528 0 0.976-0.452 0.976-0.983 0-0.535-0.444-0.98-0.976-0.98-0.527 0-0.984 0.454-0.986 0.98-0.001 0.523 0.461 0.983 0.986 0.983zM26.462 18.623c0.54 0 0.982-0.438 0.986-0.968 0-0.533-0.438-0.972-0.975-0.976-0.556-0.007-1.012 0.442-1.003 0.982 0.008 0.531 0.456 0.964 0.992 0.963zM17.646 25.483c-0.534 0.001-0.982 0.446-0.986 0.971-0.005 0.531 0.438 0.972 0.974 0.976 0.545 0.005 0.988-0.415 1-0.948 0.011-0.545-0.442-1-0.989-0.999zM16.665 5.518c-0.006 0.523 0.451 0.982 0.976 0.987 0.531 0.003 0.982-0.446 0.986-0.975 0.002-0.529-0.446-0.986-0.974-0.989-0.52-0.003-0.981 0.452-0.988 0.978zM5.579 11.194c0.005 0.541 0.452 0.98 0.982 0.97 0.536-0.013 0.966-0.459 0.957-0.996-0.007-0.543-0.446-0.973-0.984-0.964-0.539 0.008-0.959 0.445-0.955 0.99zM26.408 20.785c-0.011-0.523-0.442-0.946-0.965-0.947-0.542-0.003-0.984 0.433-0.984 0.965 0 0.533 0.447 0.971 0.984 0.966 0.536-0.007 0.978-0.456 0.965-0.984zM6.485 14.332c0-0.539-0.444-0.98-0.974-0.974-0.521 0.009-0.947 0.438-0.952 0.96-0.007 0.543 0.421 0.982 0.957 0.99 0.531 0.006 0.97-0.436 0.97-0.976zM20.787 24.466c-0.542 0.008-0.976 0.452-0.965 0.984 0.013 0.542 0.447 0.957 0.995 0.952 0.542-0.006 0.967-0.441 0.958-0.983-0.006-0.539-0.444-0.96-0.988-0.954zM14.314 6.497c0.532 0.013 0.976-0.424 0.982-0.963 0.005-0.541-0.429-0.986-0.963-0.986-0.52 0-0.954 0.424-0.965 0.947-0.008 0.545 0.412 0.991 0.946 1.002zM25.416 12.152c0.523 0.014 0.987-0.434 0.992-0.963 0.008-0.526-0.442-0.98-0.974-0.981-0.528-0.001-0.979 0.452-0.976 0.979 0.007 0.516 0.438 0.951 0.958 0.965zM23.467 24.46c0.532 0.013 0.976-0.428 0.981-0.965 0.002-0.541-0.432-0.983-0.964-0.983-0.532 0.001-0.966 0.442-0.963 0.982 0.003 0.526 0.422 0.954 0.946 0.966zM11.18 7.524c0.534-0.001 0.965-0.446 0.963-0.986-0.003-0.539-0.45-0.978-0.981-0.965-0.523 0.014-0.942 0.442-0.946 0.968-0.002 0.54 0.434 0.983 0.964 0.982zM5.5 18.613c0.553 0.009 0.98-0.401 0.986-0.949 0.006-0.55-0.407-0.975-0.956-0.976-0.533-0.003-0.959 0.404-0.971 0.93-0.015 0.552 0.399 0.987 0.941 0.996zM23.513 7.534c-0.55-0.011-0.981 0.401-0.99 0.944-0.008 0.553 0.404 0.976 0.95 0.98 0.551 0.007 0.974-0.41 0.976-0.958 0-0.533-0.409-0.956-0.936-0.966zM12.143 25.443c0.002-0.548-0.417-0.971-0.965-0.97-0.536 0-0.951 0.405-0.96 0.936-0.011 0.55 0.402 0.98 0.947 0.987 0.55 0.007 0.975-0.409 0.979-0.954zM15.293 26.467c0.006-0.55-0.41-0.971-0.96-0.971-0.547 0-0.966 0.423-0.964 0.973 0.003 0.529 0.415 0.947 0.947 0.954 0.552 0.008 0.974-0.406 0.978-0.956zM19.528 24.402c0.005-0.476-0.337-0.82-0.81-0.82-0.452 0.002-0.835 0.383-0.828 0.821 0.007 0.42 0.389 0.804 0.811 0.818 0.436 0.014 0.822-0.372 0.827-0.819zM8.876 20.375c-0.483-0.011-0.831 0.316-0.836 0.788-0.008 0.455 0.353 0.84 0.795 0.85 0.429 0.009 0.836-0.39 0.839-0.823 0.006-0.425-0.366-0.803-0.798-0.814zM25.647 16.016c0.015-0.43-0.343-0.814-0.775-0.831-0.483-0.016-0.84 0.304-0.859 0.768-0.018 0.455 0.332 0.844 0.779 0.867 0.432 0.022 0.837-0.362 0.855-0.804zM18.731 6.783c-0.453-0.002-0.838 0.368-0.839 0.807-0.002 0.432 0.4 0.831 0.832 0.83 0.432-0.003 0.798-0.37 0.804-0.807 0.007-0.477-0.33-0.827-0.797-0.83zM8.039 10.819c0.005 0.434 0.369 0.805 0.799 0.81 0.432 0.006 0.835-0.393 0.835-0.827 0.001-0.441-0.381-0.813-0.834-0.81-0.473 0.002-0.806 0.346-0.8 0.827zM23.57 13.259c-0.006 0.437 0.394 0.832 0.831 0.826 0.446-0.008 0.807-0.393 0.796-0.848-0.010-0.445-0.368-0.787-0.819-0.781-0.437 0.005-0.805 0.37-0.808 0.804zM21.192 22.316c-0.438-0.008-0.834 0.385-0.83 0.827 0.005 0.433 0.37 0.796 0.808 0.799 0.456 0.005 0.807-0.329 0.818-0.779 0.010-0.457-0.348-0.838-0.796-0.847zM6.775 13.251c-0.007 0.443 0.382 0.837 0.822 0.834 0.431-0.003 0.796-0.37 0.8-0.808 0.006-0.466-0.345-0.822-0.812-0.821-0.44 0-0.802 0.358-0.811 0.796zM11.607 23.137c0-0.441-0.356-0.808-0.789-0.821-0.438-0.013-0.836 0.378-0.836 0.821 0.001 0.438 0.361 0.799 0.8 0.805 0.473 0.008 0.824-0.336 0.824-0.805zM23.122 11.612c0.437 0.013 0.834-0.381 0.828-0.82-0.007-0.433-0.378-0.795-0.814-0.794-0.445 0.001-0.803 0.357-0.806 0.795-0.006 0.434 0.357 0.807 0.792 0.819zM23.949 21.181c-0.003-0.436-0.369-0.798-0.807-0.799-0.445-0.002-0.806 0.349-0.813 0.788-0.007 0.449 0.374 0.834 0.82 0.826 0.431-0.008 0.802-0.384 0.8-0.814zM7.165 16.804c0.434-0.005 0.8-0.374 0.804-0.808 0.001-0.44-0.357-0.799-0.798-0.806-0.438-0.005-0.811 0.351-0.823 0.784-0.013 0.441 0.374 0.835 0.818 0.83zM21.181 8.033c-0.431 0.001-0.804 0.37-0.808 0.805-0.006 0.452 0.37 0.821 0.829 0.813 0.444-0.009 0.787-0.364 0.783-0.814-0.003-0.437-0.37-0.804-0.804-0.804zM10.805 9.651c0.447-0.001 0.794-0.351 0.795-0.8 0.002-0.441-0.353-0.808-0.788-0.818-0.445-0.009-0.827 0.376-0.82 0.827 0.008 0.443 0.369 0.794 0.813 0.791zM15.999 25.636c0.438-0.005 0.791-0.367 0.791-0.81 0.002-0.445-0.354-0.807-0.79-0.813-0.434-0.005-0.806 0.356-0.818 0.792-0.010 0.451 0.367 0.835 0.816 0.83zM15.99 6.351c-0.438 0.002-0.807 0.359-0.818 0.794-0.010 0.444 0.367 0.826 0.821 0.826 0.447 0 0.797-0.346 0.804-0.792 0.006-0.47-0.343-0.827-0.807-0.827zM25.193 18.734c0.007-0.449-0.336-0.804-0.783-0.813-0.453-0.009-0.836 0.359-0.832 0.805 0.005 0.43 0.376 0.8 0.808 0.804 0.436 0.005 0.802-0.358 0.807-0.796zM13.235 6.787c-0.44 0.014-0.787 0.378-0.778 0.822 0.009 0.437 0.382 0.799 0.813 0.794 0.447-0.006 0.804-0.39 0.79-0.845-0.013-0.441-0.378-0.783-0.826-0.771zM7.59 19.531c0.438-0.001 0.798-0.359 0.802-0.8 0.006-0.451-0.337-0.803-0.782-0.81-0.46-0.009-0.827 0.351-0.822 0.808 0.005 0.438 0.372 0.804 0.803 0.802zM14.062 24.398c0.003-0.451-0.337-0.8-0.784-0.807-0.449-0.007-0.807 0.334-0.82 0.778-0.011 0.451 0.359 0.835 0.806 0.834 0.433-0.001 0.796-0.365 0.798-0.804zM10.795 21.884c0.37-0.005 0.661-0.303 0.664-0.679 0.005-0.388-0.268-0.675-0.647-0.687-0.382-0.010-0.709 0.297-0.715 0.67-0.007 0.365 0.332 0.701 0.697 0.696zM22.588 14.858c0.007 0.375 0.304 0.671 0.674 0.671 0.362 0 0.702-0.345 0.692-0.703-0.013-0.357-0.333-0.661-0.692-0.661-0.397 0-0.679 0.292-0.674 0.693zM19.317 23.241c0.368 0.014 0.688-0.308 0.688-0.692 0-0.389-0.271-0.664-0.659-0.67-0.391-0.006-0.706 0.295-0.706 0.675 0.001 0.351 0.318 0.675 0.676 0.687zM8.743 12.635c-0.010 0.365 0.325 0.708 0.691 0.706 0.384-0.001 0.679-0.31 0.671-0.706-0.006-0.385-0.287-0.659-0.671-0.657-0.369 0-0.683 0.298-0.691 0.657zM17.156 8.029c-0.36-0.010-0.704 0.329-0.704 0.694 0.002 0.364 0.306 0.667 0.675 0.672 0.401 0.007 0.691-0.278 0.691-0.677-0.003-0.365-0.304-0.678-0.661-0.69zM8.715 15.523c0.357 0.005 0.679-0.31 0.688-0.669s-0.295-0.679-0.657-0.691c-0.369-0.013-0.684 0.278-0.7 0.644-0.018 0.377 0.296 0.712 0.669 0.716zM22.55 13.335c0.366 0 0.663-0.303 0.668-0.676 0.005-0.382-0.277-0.674-0.653-0.681-0.381-0.009-0.704 0.308-0.696 0.683 0.007 0.362 0.32 0.675 0.681 0.675zM21.189 21.879c0.362 0.005 0.67-0.296 0.676-0.667 0.009-0.375-0.273-0.679-0.645-0.692-0.384-0.013-0.696 0.292-0.696 0.679-0.001 0.367 0.3 0.675 0.665 0.679zM12.646 23.233c0.38 0.002 0.686-0.318 0.674-0.706-0.013-0.381-0.301-0.654-0.684-0.647-0.374 0.007-0.667 0.306-0.662 0.677 0.002 0.366 0.31 0.674 0.672 0.676zM14.163 8.73c0.003 0.367 0.303 0.662 0.676 0.664 0.377 0.001 0.669-0.288 0.675-0.663 0.005-0.368-0.288-0.677-0.656-0.691-0.372-0.013-0.699 0.311-0.694 0.69zM14.842 23.931c0.37-0.001 0.662-0.297 0.662-0.672-0.001-0.37-0.304-0.677-0.667-0.674-0.365 0.001-0.664 0.31-0.662 0.679 0.001 0.374 0.296 0.669 0.667 0.667zM10.788 10.124c-0.375 0-0.679 0.297-0.679 0.663 0 0.362 0.308 0.665 0.677 0.665 0.373 0.001 0.67-0.295 0.67-0.665 0-0.375-0.289-0.663-0.668-0.663zM19.336 8.767c-0.368-0.001-0.679 0.302-0.68 0.664-0.001 0.358 0.311 0.676 0.671 0.679 0.364 0.003 0.67-0.304 0.67-0.671 0.002-0.378-0.286-0.67-0.661-0.672zM17.811 23.267c0.002-0.365-0.3-0.678-0.663-0.684-0.354-0.005-0.676 0.311-0.681 0.67-0.005 0.358 0.306 0.674 0.67 0.676 0.372 0.005 0.67-0.289 0.675-0.662zM23.262 17.811c0.366 0 0.675-0.305 0.675-0.667 0.001-0.366-0.303-0.665-0.675-0.665-0.378 0-0.667 0.287-0.667 0.664 0 0.372 0.295 0.668 0.667 0.668zM9.398 17.15c0.006-0.362-0.296-0.667-0.669-0.67-0.375-0.005-0.675 0.285-0.68 0.655-0.003 0.367 0.295 0.67 0.667 0.675 0.366 0.005 0.677-0.295 0.683-0.66zM23.214 19.323c-0.006-0.38-0.295-0.659-0.676-0.652-0.369 0.005-0.67 0.31-0.661 0.675 0.008 0.366 0.317 0.665 0.684 0.657 0.37-0.008 0.66-0.31 0.653-0.68zM11.984 9.453c0.009 0.369 0.319 0.667 0.686 0.655s0.649-0.317 0.643-0.692-0.303-0.656-0.683-0.647c-0.37 0.009-0.654 0.308-0.646 0.684zM9.448 18.669c-0.375-0.007-0.676 0.279-0.685 0.649-0.009 0.368 0.286 0.677 0.655 0.686 0.368 0.009 0.672-0.286 0.679-0.656 0.006-0.381-0.271-0.671-0.649-0.679zM21.192 10.124c-0.382 0.002-0.668 0.294-0.661 0.675 0.006 0.365 0.288 0.647 0.649 0.654 0.38 0.007 0.675-0.281 0.678-0.66 0-0.384-0.285-0.67-0.667-0.669zM16.023 10.473c0.298-0.016 0.557-0.296 0.543-0.588-0.016-0.297-0.295-0.557-0.588-0.548-0.302 0.010-0.556 0.276-0.555 0.576 0.003 0.313 0.284 0.577 0.599 0.559zM20.349 12.41c-0.003 0.298 0.261 0.567 0.558 0.572 0.296 0.005 0.567-0.262 0.571-0.559 0.002-0.297-0.262-0.571-0.56-0.572-0.293-0.003-0.565 0.265-0.568 0.559zM19.551 20.348c-0.3 0.009-0.56 0.277-0.556 0.572 0.006 0.298 0.27 0.553 0.572 0.556 0.31 0 0.565-0.248 0.569-0.552 0.003-0.318-0.266-0.584-0.585-0.575zM9.631 14.102c-0.007 0.306 0.276 0.582 0.592 0.574 0.304-0.007 0.556-0.268 0.551-0.572-0.005-0.301-0.263-0.553-0.568-0.555-0.3-0.001-0.567 0.257-0.575 0.552zM12.405 21.476c0.321 0.005 0.557-0.225 0.563-0.549 0.007-0.319-0.232-0.572-0.542-0.579-0.31-0.005-0.561 0.244-0.566 0.557-0.002 0.327 0.223 0.564 0.545 0.571zM20.911 20.121c0.312 0.002 0.568-0.252 0.564-0.559-0.003-0.309-0.264-0.555-0.577-0.547-0.302 0.007-0.543 0.248-0.548 0.543-0.006 0.31 0.242 0.561 0.561 0.563zM22.331 14.117c0.001-0.327-0.226-0.563-0.548-0.567-0.321-0.003-0.556 0.229-0.559 0.553-0.006 0.317 0.236 0.571 0.545 0.573 0.312 0.005 0.559-0.244 0.561-0.559zM14.095 22.345c0.296 0.011 0.567-0.248 0.576-0.549 0.007-0.304-0.241-0.572-0.543-0.583-0.304-0.013-0.56 0.238-0.569 0.549-0.008 0.313 0.229 0.572 0.536 0.583zM9.894 16.551c0.31 0.007 0.569-0.247 0.572-0.556 0.002-0.3-0.232-0.545-0.533-0.558-0.312-0.014-0.577 0.229-0.59 0.537-0.008 0.303 0.247 0.572 0.551 0.576zM13.556 10.229c0.013 0.305 0.248 0.528 0.553 0.528 0.321 0 0.563-0.242 0.56-0.559-0.007-0.316-0.254-0.552-0.575-0.548-0.316 0.008-0.549 0.258-0.539 0.579zM17.326 10.235c0.014 0.305 0.25 0.524 0.56 0.517 0.304-0.008 0.536-0.241 0.537-0.544 0.001-0.312-0.249-0.558-0.566-0.552-0.317 0.007-0.545 0.258-0.532 0.58zM12.427 11.625c0.295-0.006 0.532-0.248 0.535-0.549 0.003-0.304-0.222-0.542-0.524-0.551-0.319-0.013-0.569 0.224-0.569 0.542-0.002 0.314 0.249 0.566 0.558 0.558zM19.59 10.524c-0.318-0.013-0.572 0.229-0.575 0.543 0 0.297 0.239 0.548 0.534 0.558 0.297 0.013 0.574-0.252 0.576-0.55 0.001-0.295-0.237-0.541-0.535-0.551zM11.080 11.856c-0.298-0.006-0.572 0.268-0.567 0.566 0.005 0.292 0.255 0.543 0.547 0.549 0.309 0.006 0.563-0.25 0.558-0.563-0.005-0.297-0.246-0.547-0.537-0.552zM11.616 19.556c-0.003-0.301-0.24-0.536-0.543-0.54-0.312-0.002-0.567 0.254-0.56 0.561 0.006 0.298 0.246 0.532 0.549 0.536 0.319 0.005 0.56-0.237 0.555-0.558zM15.993 22.63c0.31 0 0.559-0.261 0.548-0.572-0.009-0.303-0.247-0.528-0.553-0.527-0.304 0.003-0.545 0.236-0.553 0.532-0.010 0.3 0.256 0.568 0.559 0.567zM22.323 17.858c-0.006-0.302-0.245-0.54-0.542-0.543-0.31-0.001-0.557 0.254-0.551 0.567 0.007 0.316 0.26 0.549 0.576 0.535 0.303-0.013 0.523-0.25 0.517-0.559zM18.424 21.782c0.001-0.306-0.263-0.569-0.566-0.563-0.296 0.009-0.532 0.254-0.533 0.556-0.001 0.314 0.25 0.567 0.561 0.559 0.29-0.008 0.536-0.26 0.537-0.552zM22.631 15.971c-0.013-0.3-0.257-0.529-0.56-0.527-0.301 0.003-0.545 0.241-0.551 0.536-0.008 0.3 0.262 0.571 0.563 0.567 0.304-0.002 0.56-0.271 0.549-0.576zM10.191 18.418c0.313 0.007 0.573-0.244 0.572-0.549-0.002-0.286-0.255-0.543-0.541-0.551-0.294-0.009-0.549 0.228-0.566 0.52-0.017 0.317 0.218 0.573 0.535 0.58zM11.059 14.74c-0.254-0.008-0.486 0.22-0.486 0.473 0.003 0.239 0.215 0.448 0.463 0.453 0.26 0.006 0.491-0.215 0.484-0.464-0.002-0.24-0.218-0.456-0.461-0.462zM11.044 16.313c-0.248 0.003-0.462 0.215-0.463 0.456-0.001 0.254 0.233 0.477 0.488 0.464 0.244-0.010 0.454-0.233 0.446-0.473-0.007-0.241-0.225-0.449-0.471-0.447zM19.541 12.921c0.25-0.006 0.469-0.246 0.454-0.496-0.016-0.237-0.241-0.444-0.477-0.438-0.238 0.007-0.452 0.221-0.455 0.46-0.003 0.249 0.229 0.481 0.478 0.475zM13.736 20.922c0.268-0.029 0.432-0.19 0.453-0.463 0.018-0.246-0.223-0.483-0.471-0.481-0.246 0.002-0.479 0.239-0.473 0.483 0.005 0.247 0.248 0.486 0.492 0.462zM15.239 21.4c0.238-0.017 0.444-0.244 0.434-0.478-0.009-0.25-0.253-0.472-0.497-0.453-0.24 0.018-0.441 0.241-0.433 0.48 0.009 0.249 0.249 0.468 0.496 0.451zM14.74 11.048c0 0.268 0.207 0.463 0.486 0.455 0.244-0.006 0.457-0.215 0.457-0.453 0.003-0.253-0.229-0.468-0.492-0.46-0.256 0.009-0.452 0.206-0.452 0.457zM11.991 18.268c0.002-0.239-0.215-0.459-0.454-0.463-0.24-0.003-0.46 0.214-0.463 0.453-0.002 0.241 0.213 0.462 0.453 0.463 0.241 0.003 0.46-0.212 0.464-0.453zM19.55 19.988c0.255-0.009 0.452-0.21 0.451-0.46-0.002-0.266-0.214-0.462-0.491-0.453-0.245 0.009-0.456 0.223-0.455 0.459 0 0.25 0.232 0.463 0.495 0.454zM19.996 13.709c-0.001 0.284 0.142 0.444 0.425 0.462 0.276 0.021 0.485-0.172 0.489-0.44 0.005-0.257-0.177-0.453-0.433-0.464-0.281-0.013-0.48 0.166-0.481 0.443zM20.474 18.73c0.247-0.015 0.438-0.229 0.43-0.483-0.007-0.25-0.218-0.456-0.461-0.452-0.256 0.005-0.463 0.237-0.446 0.501 0.016 0.246 0.239 0.447 0.477 0.433zM13.703 11.080c-0.247 0.008-0.455 0.221-0.453 0.46 0.006 0.244 0.22 0.447 0.466 0.446 0.266 0 0.483-0.222 0.466-0.478-0.014-0.249-0.224-0.437-0.48-0.428zM16.789 10.602c-0.258-0.007-0.462 0.178-0.471 0.431-0.009 0.247 0.191 0.456 0.441 0.465 0.254 0.008 0.459-0.182 0.468-0.433 0.008-0.253-0.184-0.455-0.438-0.463zM18.264 11.084c-0.258 0-0.448 0.19-0.448 0.447-0.002 0.257 0.19 0.449 0.447 0.449 0.256 0.001 0.448-0.19 0.449-0.447-0.001-0.258-0.191-0.449-0.448-0.449zM17.222 20.94c0-0.255-0.2-0.46-0.447-0.462-0.245-0.001-0.455 0.21-0.456 0.454-0.002 0.241 0.212 0.46 0.452 0.461 0.244 0.003 0.452-0.205 0.452-0.453zM12.002 19.515c-0.007 0.26 0.176 0.453 0.433 0.462 0.262 0.008 0.455-0.172 0.463-0.431 0.009-0.262-0.174-0.455-0.432-0.463s-0.455 0.175-0.464 0.432zM20.942 14.763c-0.257-0.005-0.455 0.185-0.459 0.439-0.003 0.25 0.193 0.455 0.442 0.461 0.252 0.005 0.452-0.189 0.456-0.444 0.003-0.257-0.184-0.452-0.44-0.456zM11.545 13.272c-0.249-0.008-0.463 0.191-0.471 0.434-0.009 0.244 0.197 0.454 0.446 0.462 0.252 0.006 0.463-0.188 0.472-0.436 0.008-0.241-0.198-0.453-0.447-0.461zM18.71 20.459c0.005-0.252-0.192-0.462-0.438-0.469-0.242-0.005-0.453 0.204-0.456 0.452-0.007 0.248 0.197 0.463 0.438 0.469 0.241 0.007 0.452-0.201 0.456-0.452zM20.483 16.777c0.001 0.247 0.207 0.453 0.452 0.453 0.252-0.001 0.446-0.199 0.447-0.455s-0.192-0.449-0.448-0.449c-0.253 0-0.451 0.199-0.451 0.452zM12.454 11.993c-0.242-0.002-0.448 0.208-0.449 0.456-0.002 0.249 0.204 0.46 0.445 0.461 0.244 0.002 0.45-0.207 0.45-0.456-0.001-0.25-0.204-0.461-0.446-0.461z"></path>
</symbol>
<symbol id="teicon-figshare2" viewBox="0 0 27 32">
<title>figshare2</title>
<path d="M25.933 3.789c-1.007-1.007-2.218-1.509-3.636-1.509h-17.151c-1.418 0-2.629 0.502-3.636 1.509-1.007 1.005-1.509 2.218-1.509 3.636v17.151c0 1.418 0.502 2.631 1.509 3.638 1.007 1.003 2.221 1.507 3.636 1.507h17.151c1.418 0 2.629-0.504 3.636-1.509 1.007-1.007 1.509-2.218 1.509-3.636v-17.151c0-1.418-0.502-2.631-1.509-3.636zM22.446 13.417c-0.003 0.42-0.356 0.766-0.774 0.759-0.415-0.006-0.768-0.366-0.76-0.779 0.007-0.42 0.362-0.764 0.781-0.759 0.42 0.007 0.757 0.356 0.754 0.779zM6.744 16.459c0.365 0.001 0.641 0.284 0.638 0.651-0.005 0.365-0.288 0.639-0.657 0.632-0.36-0.006-0.637-0.296-0.628-0.663 0.009-0.35 0.293-0.622 0.647-0.62zM6.097 14.881c0.005-0.349 0.288-0.635 0.636-0.641 0.354-0.005 0.649 0.29 0.649 0.649s-0.294 0.655-0.646 0.652c-0.358-0.006-0.643-0.3-0.639-0.66zM7.289 15.982c0.008-0.288 0.257-0.525 0.549-0.521 0.295 0.003 0.533 0.244 0.532 0.537-0.002 0.289-0.246 0.536-0.536 0.539-0.295 0.003-0.552-0.26-0.544-0.555zM8.731 11.648c-0.366 0.005-0.677-0.302-0.669-0.659s0.302-0.639 0.663-0.638c0.364 0 0.649 0.285 0.651 0.644 0.001 0.361-0.285 0.651-0.645 0.653zM9.508 12.535c0 0.289-0.269 0.555-0.557 0.55-0.287-0.002-0.531-0.25-0.533-0.54-0.005-0.319 0.217-0.549 0.534-0.55 0.302-0.002 0.557 0.246 0.556 0.54zM8.656 14.184c-0.003 0.292-0.246 0.536-0.534 0.539-0.293 0.003-0.551-0.261-0.548-0.555 0.006-0.292 0.247-0.529 0.542-0.531 0.31-0.001 0.544 0.236 0.54 0.547zM8.888 14.777c0.242 0.008 0.445 0.221 0.439 0.461-0.006 0.239-0.22 0.448-0.459 0.446-0.249-0.002-0.457-0.225-0.447-0.477 0.011-0.245 0.222-0.438 0.466-0.43zM8.131 17.281c0.297 0.005 0.525 0.24 0.52 0.54-0.001 0.295-0.241 0.534-0.534 0.535-0.288 0.001-0.532-0.244-0.535-0.535-0.002-0.305 0.242-0.545 0.549-0.54zM8.723 20.338c0.357 0 0.652 0.296 0.652 0.653 0 0.356-0.3 0.655-0.652 0.655-0.349 0-0.656-0.309-0.656-0.655 0.001-0.35 0.305-0.653 0.656-0.653zM8.947 20.009c-0.295-0.006-0.535-0.263-0.529-0.566 0.003-0.314 0.236-0.533 0.557-0.525 0.288 0.007 0.536 0.26 0.533 0.543-0.002 0.288-0.274 0.555-0.56 0.548zM8.424 16.757c0.005-0.247 0.204-0.439 0.453-0.437 0.248 0.002 0.45 0.205 0.446 0.447-0.003 0.244-0.21 0.444-0.454 0.44-0.248-0.003-0.447-0.205-0.445-0.451zM9.287 15.983c0.008-0.206 0.185-0.367 0.393-0.358 0.201 0.009 0.357 0.173 0.357 0.373-0.002 0.206-0.175 0.375-0.382 0.37-0.204-0.005-0.374-0.183-0.368-0.385zM17.008 15.776c-0.167-0.003-0.297-0.141-0.295-0.308 0.002-0.168 0.135-0.296 0.306-0.293 0.17 0.002 0.296 0.133 0.294 0.304-0.005 0.169-0.138 0.3-0.305 0.296zM17.312 16.517c-0.001 0.17-0.13 0.303-0.298 0.304-0.164 0-0.3-0.137-0.301-0.303 0-0.167 0.131-0.301 0.3-0.301 0.17 0 0.301 0.129 0.3 0.3zM17.208 14.736c0.001-0.216 0.159-0.372 0.373-0.369 0.214 0.003 0.365 0.16 0.364 0.378-0.001 0.21-0.166 0.376-0.374 0.373-0.206-0.002-0.367-0.172-0.362-0.382zM17.179 12.97c-0.241-0.005-0.43-0.193-0.434-0.437-0.003-0.254 0.186-0.448 0.441-0.449s0.445 0.189 0.445 0.446c-0.002 0.253-0.199 0.445-0.452 0.44zM17.003 13.234c0.199 0.001 0.375 0.183 0.374 0.381-0.002 0.199-0.183 0.376-0.381 0.373-0.199-0.002-0.374-0.182-0.372-0.381 0.002-0.197 0.183-0.375 0.378-0.373zM16.709 14.177c0.17 0.008 0.293 0.139 0.289 0.31-0.003 0.178-0.142 0.306-0.326 0.294-0.189-0.014-0.285-0.119-0.284-0.31 0.001-0.183 0.133-0.303 0.32-0.294zM16.065 18.051c0.184-0.007 0.325 0.123 0.326 0.302 0.001 0.167-0.129 0.301-0.3 0.308-0.175 0.006-0.33-0.136-0.33-0.304-0.001-0.157 0.141-0.3 0.304-0.305zM15.767 13.632c0.003-0.16 0.145-0.303 0.304-0.306 0.157-0.005 0.308 0.134 0.317 0.292 0.010 0.167-0.135 0.326-0.303 0.33-0.165 0.005-0.32-0.15-0.318-0.316zM16.090 13.084c-0.197-0.008-0.357-0.175-0.357-0.373 0.002-0.209 0.17-0.369 0.384-0.361 0.198 0.007 0.357 0.17 0.357 0.367-0.001 0.199-0.186 0.375-0.384 0.367zM15.943 12.073c-0.24-0.002-0.449-0.214-0.448-0.453 0.001-0.241 0.208-0.444 0.453-0.443 0.25 0.001 0.442 0.196 0.441 0.448 0.001 0.245-0.204 0.449-0.446 0.447zM15.532 13.024c-0.001 0.17-0.128 0.298-0.3 0.297-0.17 0-0.3-0.127-0.298-0.298 0-0.172 0.127-0.298 0.3-0.298 0.172 0 0.298 0.127 0.298 0.3zM15.54 10.947c-0.288 0.001-0.556-0.264-0.555-0.552 0.001-0.293 0.258-0.541 0.56-0.539 0.311 0.002 0.536 0.236 0.531 0.552-0.003 0.292-0.248 0.536-0.536 0.539zM15.341 12.139c-0.001 0.202-0.157 0.357-0.358 0.362-0.207 0.005-0.365-0.141-0.374-0.345-0.009-0.215 0.143-0.382 0.356-0.385 0.209-0.003 0.376 0.16 0.376 0.368zM14.475 11.598c-0.246-0.005-0.448-0.206-0.449-0.449 0-0.244 0.229-0.469 0.469-0.462 0.239 0.007 0.439 0.216 0.44 0.46 0.001 0.266-0.191 0.456-0.46 0.452zM13.513 12.701c0 0.158-0.143 0.297-0.306 0.302-0.185 0.005-0.322-0.125-0.322-0.304 0-0.167 0.129-0.3 0.302-0.305 0.175-0.005 0.329 0.139 0.327 0.308zM13.34 11.942c-0.001-0.2 0.168-0.376 0.369-0.384 0.194-0.006 0.381 0.168 0.391 0.366 0.010 0.194-0.162 0.381-0.36 0.392-0.212 0.011-0.398-0.164-0.4-0.374zM13.176 18.98c0.164-0.014 0.325 0.135 0.332 0.302 0.006 0.157-0.132 0.308-0.29 0.318-0.165 0.013-0.324-0.134-0.33-0.301-0.003-0.158 0.13-0.308 0.289-0.319zM13.715 19.687c0.206 0 0.364 0.151 0.369 0.352 0.008 0.208-0.159 0.381-0.365 0.381-0.202 0.001-0.38-0.177-0.373-0.377 0.006-0.199 0.166-0.353 0.368-0.356zM13.937 19.288c0.001-0.164 0.142-0.304 0.305-0.303 0.165 0.001 0.297 0.138 0.297 0.309-0.001 0.166-0.138 0.304-0.302 0.303-0.16-0.001-0.302-0.148-0.301-0.309zM14.23 13c-0.167-0.006-0.301-0.146-0.294-0.31 0.006-0.167 0.142-0.292 0.313-0.287 0.169 0.005 0.297 0.139 0.292 0.309s-0.142 0.294-0.311 0.288zM13.72 10.646c-0.302 0-0.553-0.255-0.548-0.55 0.007-0.289 0.254-0.528 0.545-0.529 0.31 0 0.543 0.239 0.539 0.551-0.005 0.297-0.238 0.528-0.536 0.528zM13.401 11.155c-0.005 0.25-0.199 0.443-0.45 0.441-0.249-0.001-0.449-0.198-0.45-0.443-0.002-0.253 0.215-0.468 0.463-0.461 0.245 0.009 0.44 0.215 0.438 0.462zM12.839 12.132c0.001 0.213-0.16 0.373-0.374 0.373-0.205 0-0.36-0.149-0.368-0.352-0.008-0.214 0.148-0.381 0.359-0.385 0.214-0.003 0.378 0.155 0.383 0.365zM12.514 13.005c0.011 0.17-0.133 0.319-0.31 0.319-0.166 0.001-0.309-0.135-0.311-0.297-0.002-0.16 0.136-0.302 0.302-0.308 0.169-0.005 0.31 0.119 0.319 0.286zM11.905 10.936c-0.288 0.005-0.536-0.238-0.542-0.529-0.007-0.296 0.224-0.539 0.518-0.548 0.297-0.009 0.542 0.218 0.55 0.512 0.010 0.305-0.228 0.561-0.526 0.565zM11.479 11.179c0.254-0.006 0.45 0.182 0.454 0.432s-0.184 0.454-0.429 0.461c-0.245 0.008-0.452-0.191-0.456-0.437-0.006-0.25 0.183-0.45 0.431-0.456zM11.35 12.35c0.202 0.007 0.352 0.166 0.35 0.368-0.002 0.2-0.16 0.361-0.357 0.366-0.207 0.005-0.374-0.164-0.372-0.374 0-0.21 0.166-0.368 0.378-0.36zM11.358 13.942c-0.161-0.001-0.297-0.142-0.296-0.309 0.001-0.166 0.137-0.306 0.3-0.305 0.162 0 0.297 0.141 0.297 0.309-0.001 0.167-0.139 0.306-0.301 0.305zM11.657 18.365c-0.006 0.172-0.135 0.293-0.31 0.287-0.17-0.006-0.294-0.135-0.288-0.309 0.006-0.172 0.136-0.294 0.31-0.288 0.173 0.007 0.294 0.136 0.288 0.31zM11.052 14.49c-0.007 0.166-0.148 0.294-0.314 0.29-0.166-0.006-0.303-0.146-0.297-0.309s0.149-0.295 0.313-0.289c0.167 0.005 0.304 0.145 0.298 0.308zM10.415 15.778c-0.166-0.003-0.308-0.142-0.309-0.302 0-0.168 0.154-0.32 0.322-0.316 0.162 0.005 0.306 0.149 0.309 0.309 0.005 0.166-0.149 0.313-0.322 0.309zM10.734 16.508c0.007 0.16-0.135 0.31-0.296 0.316-0.169 0.008-0.327-0.141-0.326-0.31 0.001-0.162 0.144-0.303 0.309-0.305s0.31 0.138 0.313 0.3zM10.43 13.981c-0.194-0.003-0.36-0.172-0.364-0.366-0.003-0.199 0.18-0.381 0.378-0.377 0.194 0.005 0.356 0.169 0.358 0.368 0.002 0.209-0.167 0.38-0.373 0.375zM10.248 12.97c-0.247 0-0.452-0.202-0.452-0.445 0-0.244 0.204-0.441 0.453-0.441 0.252 0 0.445 0.191 0.445 0.441 0.001 0.248-0.197 0.445-0.446 0.445zM9.862 14.366c0.204 0.001 0.376 0.169 0.38 0.37 0.002 0.202-0.167 0.376-0.368 0.381-0.212 0.005-0.4-0.178-0.394-0.383 0.005-0.196 0.183-0.368 0.383-0.368zM9.873 16.879c0.19 0.006 0.359 0.177 0.359 0.368 0.001 0.204-0.17 0.369-0.381 0.366-0.212-0.006-0.368-0.176-0.357-0.388 0.011-0.196 0.183-0.352 0.378-0.346zM10.267 19.013c0.253 0.008 0.434 0.2 0.431 0.457-0.001 0.252-0.196 0.449-0.443 0.453-0.245 0.005-0.469-0.22-0.465-0.463 0.003-0.249 0.222-0.454 0.477-0.447zM10.433 18.743c-0.202-0.003-0.361-0.159-0.366-0.357-0.003-0.206 0.167-0.376 0.374-0.374 0.202 0.002 0.359 0.159 0.361 0.359 0.003 0.214-0.157 0.374-0.369 0.372zM10.742 17.815c-0.161-0.001-0.304-0.148-0.302-0.309 0.002-0.16 0.15-0.304 0.31-0.303 0.16 0.003 0.304 0.151 0.303 0.31-0.005 0.161-0.151 0.304-0.311 0.302zM11.342 18.9c0.207 0.003 0.365 0.172 0.361 0.385-0.005 0.215-0.161 0.368-0.375 0.366-0.215-0.005-0.365-0.162-0.364-0.381 0.003-0.208 0.17-0.374 0.377-0.37zM11.482 19.921c0.255-0.005 0.447 0.177 0.455 0.432 0.008 0.258-0.197 0.471-0.449 0.47-0.241-0.001-0.447-0.207-0.449-0.452-0.002-0.247 0.193-0.446 0.444-0.451zM11.887 18.974c-0.003-0.162 0.152-0.32 0.316-0.321s0.325 0.158 0.313 0.32c-0.015 0.183-0.123 0.29-0.303 0.31-0.16 0.016-0.322-0.144-0.326-0.309zM12.477 19.475c0.201 0.008 0.366 0.186 0.361 0.39-0.007 0.2-0.186 0.373-0.384 0.366-0.206-0.008-0.364-0.18-0.357-0.39 0.006-0.207 0.177-0.374 0.38-0.366zM12.949 20.391c0.242-0.002 0.445 0.201 0.445 0.449 0 0.249-0.194 0.447-0.441 0.448s-0.444-0.196-0.445-0.445c-0.001-0.246 0.198-0.452 0.441-0.453zM13.724 21.342c0.292 0.005 0.528 0.247 0.527 0.542 0 0.295-0.236 0.537-0.527 0.541-0.301 0.003-0.552-0.254-0.545-0.552 0.008-0.293 0.256-0.534 0.545-0.531zM14.035 20.837c0.003-0.239 0.217-0.451 0.454-0.447 0.242 0.003 0.444 0.213 0.441 0.455-0.002 0.248-0.202 0.444-0.449 0.441-0.241-0.001-0.449-0.21-0.446-0.449zM14.608 19.85c0-0.201 0.158-0.364 0.356-0.369 0.201-0.006 0.377 0.17 0.377 0.375-0.001 0.194-0.166 0.362-0.358 0.367-0.208 0.006-0.376-0.161-0.375-0.373zM15.226 19.275c-0.161-0.005-0.296-0.149-0.292-0.312 0.003-0.167 0.143-0.304 0.305-0.302 0.165 0.005 0.295 0.145 0.292 0.312-0.002 0.168-0.144 0.305-0.305 0.302zM15.955 19.92c0.258 0.005 0.439 0.188 0.439 0.447 0 0.258-0.214 0.471-0.459 0.462-0.238-0.008-0.45-0.224-0.452-0.459 0-0.254 0.21-0.454 0.471-0.451zM16.102 19.651c-0.2-0.001-0.376-0.172-0.381-0.37-0.003-0.197 0.172-0.375 0.37-0.381 0.214-0.007 0.393 0.17 0.391 0.383-0.003 0.204-0.174 0.368-0.381 0.368zM16.39 17.532c-0.013-0.176 0.126-0.33 0.297-0.334 0.162-0.003 0.303 0.134 0.308 0.301 0.006 0.169-0.121 0.312-0.286 0.321-0.16 0.010-0.309-0.126-0.319-0.288zM16.989 18.010c0.209-0.006 0.383 0.159 0.385 0.364 0.003 0.206-0.167 0.375-0.376 0.374-0.213-0.001-0.378-0.168-0.374-0.375 0.003-0.197 0.165-0.357 0.365-0.362zM17.204 19.014c0.248 0.009 0.437 0.212 0.431 0.461-0.005 0.248-0.209 0.448-0.452 0.445-0.244-0.002-0.445-0.207-0.445-0.453 0.001-0.258 0.209-0.461 0.465-0.453zM17.596 17.612c-0.212 0.010-0.38-0.146-0.384-0.357-0.003-0.21 0.161-0.38 0.367-0.378 0.199 0.002 0.357 0.161 0.361 0.361 0.003 0.207-0.143 0.365-0.344 0.374zM17.779 16.365c-0.201 0.002-0.381-0.178-0.375-0.377 0.005-0.197 0.167-0.357 0.367-0.357 0.204-0.002 0.366 0.152 0.374 0.351 0.008 0.204-0.162 0.382-0.366 0.383zM18.706 11.64c-0.364-0.002-0.639-0.285-0.633-0.653 0.006-0.362 0.294-0.638 0.66-0.63 0.351 0.007 0.624 0.289 0.624 0.644-0.001 0.365-0.281 0.643-0.651 0.639zM19.855 14.158c0.008 0.304-0.233 0.56-0.531 0.565-0.292 0.006-0.557-0.26-0.553-0.549 0.002-0.289 0.248-0.533 0.54-0.536 0.3-0.005 0.539 0.224 0.544 0.52zM18.481 11.999c0.29-0.001 0.539 0.24 0.543 0.529 0.005 0.293-0.262 0.555-0.551 0.548s-0.532-0.257-0.528-0.547c0.001-0.293 0.24-0.529 0.536-0.531zM19.028 15.217c0.007 0.239-0.22 0.469-0.461 0.469-0.247 0-0.446-0.198-0.449-0.448-0.005-0.266 0.184-0.462 0.449-0.462 0.238 0.001 0.453 0.204 0.461 0.441zM18.566 16.319c0.248 0 0.451 0.2 0.449 0.445 0 0.241-0.206 0.445-0.449 0.445-0.249 0-0.446-0.198-0.446-0.446 0.001-0.252 0.194-0.444 0.446-0.444zM18.715 20.341c0.354 0 0.643 0.296 0.643 0.656-0.003 0.358-0.301 0.651-0.654 0.643-0.35-0.009-0.629-0.294-0.63-0.644-0.002-0.36 0.287-0.654 0.641-0.655zM17.944 19.447c0.005-0.294 0.246-0.527 0.542-0.526 0.293 0.001 0.536 0.244 0.539 0.534 0.001 0.286-0.246 0.537-0.534 0.543-0.297 0.003-0.551-0.253-0.547-0.551zM19.317 18.354c-0.288-0.002-0.536-0.249-0.54-0.536-0.003-0.297 0.254-0.543 0.555-0.537 0.297 0.006 0.526 0.244 0.52 0.542-0.002 0.293-0.247 0.534-0.535 0.532zM19.584 16.548c-0.297-0.015-0.529-0.273-0.518-0.577 0.013-0.31 0.25-0.524 0.572-0.512 0.289 0.011 0.527 0.266 0.518 0.553-0.013 0.295-0.282 0.55-0.572 0.536zM20.706 16.454c0.358 0.002 0.649 0.295 0.649 0.651-0.003 0.353-0.298 0.644-0.657 0.644-0.357 0.001-0.655-0.287-0.661-0.641-0.006-0.359 0.297-0.657 0.669-0.653zM20.696 15.545c-0.35 0-0.655-0.308-0.653-0.657 0.001-0.35 0.309-0.653 0.656-0.652 0.351 0.002 0.654 0.308 0.654 0.657-0.002 0.35-0.308 0.653-0.657 0.652zM20.499 10.309c0.425 0.003 0.765 0.346 0.763 0.771-0.003 0.418-0.357 0.767-0.775 0.763-0.42-0.006-0.768-0.359-0.763-0.776 0.003-0.423 0.35-0.758 0.775-0.757zM20.013 12.139c0.356 0.001 0.655 0.304 0.649 0.654-0.003 0.353-0.312 0.651-0.661 0.643-0.346-0.009-0.635-0.3-0.639-0.643-0.001-0.352 0.3-0.654 0.651-0.654zM18.625 8.445c0.434-0.008 0.781 0.33 0.784 0.766 0.006 0.439-0.33 0.782-0.765 0.783-0.427 0.001-0.787-0.356-0.784-0.776 0.001-0.413 0.352-0.767 0.765-0.773zM18.101 13.319c0.25 0.006 0.438 0.2 0.436 0.454-0.003 0.249-0.202 0.45-0.446 0.45-0.24 0-0.451-0.209-0.454-0.45-0.006-0.249 0.209-0.46 0.464-0.454zM17.191 11.768c-0.305 0.005-0.555-0.241-0.551-0.542 0.003-0.29 0.252-0.536 0.54-0.537 0.288 0 0.533 0.244 0.535 0.536 0.001 0.3-0.228 0.537-0.524 0.543zM17.575 9.688c0.003 0.369-0.287 0.67-0.649 0.669-0.348-0.001-0.649-0.298-0.659-0.647-0.010-0.349 0.308-0.67 0.659-0.67 0.354 0 0.647 0.292 0.649 0.648zM16.288 7.261c0.433-0.008 0.784 0.332 0.787 0.763 0.003 0.431-0.346 0.784-0.772 0.782-0.415-0.003-0.766-0.354-0.771-0.767-0.005-0.416 0.34-0.771 0.756-0.778zM15.476 9.022c-0.001 0.353-0.304 0.652-0.656 0.649-0.352-0.003-0.655-0.31-0.651-0.657 0.003-0.351 0.311-0.654 0.659-0.652 0.352 0.001 0.651 0.306 0.648 0.66zM13.724 6.854c0.424 0.003 0.758 0.343 0.756 0.772-0.001 0.424-0.345 0.768-0.765 0.765-0.42-0.002-0.767-0.354-0.764-0.773 0.005-0.422 0.352-0.766 0.773-0.764zM12.614 8.367c0.356 0 0.644 0.297 0.641 0.656-0.005 0.359-0.301 0.649-0.655 0.643s-0.636-0.305-0.629-0.668c0.007-0.349 0.296-0.631 0.643-0.631zM11.127 7.263c0.425-0.001 0.765 0.336 0.766 0.764 0.002 0.425-0.337 0.772-0.759 0.774-0.42 0.003-0.763-0.342-0.765-0.767-0.002-0.428 0.334-0.767 0.758-0.771zM10.5 9.049c0.354-0.009 0.652 0.285 0.653 0.643 0.002 0.36-0.286 0.656-0.641 0.657-0.352 0.002-0.645-0.294-0.643-0.655 0.002-0.35 0.282-0.636 0.631-0.645zM10.267 10.689c0.29 0.006 0.527 0.252 0.526 0.545-0.001 0.3-0.232 0.533-0.531 0.534-0.296 0.001-0.537-0.233-0.542-0.528-0.006-0.3 0.25-0.557 0.547-0.551zM9.794 13.757c0.005 0.263-0.192 0.47-0.448 0.471-0.245 0.001-0.468-0.228-0.461-0.471 0.007-0.239 0.215-0.438 0.461-0.439 0.256 0 0.444 0.182 0.448 0.439zM8.791 8.445c0.433-0.003 0.773 0.336 0.773 0.774 0 0.441-0.335 0.776-0.772 0.775-0.424-0.003-0.784-0.368-0.776-0.786 0.010-0.414 0.36-0.76 0.775-0.764zM8.071 12.779c0.006 0.358-0.281 0.655-0.639 0.664-0.354 0.008-0.652-0.286-0.655-0.646-0.002-0.364 0.278-0.656 0.636-0.661 0.36-0.007 0.653 0.28 0.659 0.643zM6.945 10.308c0.424 0 0.768 0.338 0.772 0.759 0.003 0.425-0.362 0.789-0.784 0.782s-0.756-0.356-0.755-0.782c0.002-0.43 0.334-0.759 0.767-0.759zM5.751 12.641c0.424-0.002 0.764 0.337 0.765 0.764 0 0.428-0.336 0.772-0.759 0.773-0.422 0.002-0.763-0.34-0.764-0.766-0.002-0.429 0.334-0.77 0.758-0.771zM4.583 15.999c-0.002-0.43 0.33-0.766 0.758-0.767 0.43-0.001 0.765 0.33 0.765 0.759 0.001 0.427-0.336 0.773-0.757 0.775s-0.764-0.342-0.766-0.767zM4.978 18.58c0.003-0.429 0.36-0.776 0.792-0.768 0.422 0.009 0.764 0.357 0.759 0.778-0.005 0.427-0.373 0.787-0.791 0.774-0.42-0.015-0.763-0.369-0.76-0.783zM6.953 21.694c-0.428 0.006-0.779-0.35-0.775-0.786 0.005-0.431 0.337-0.758 0.768-0.757 0.425 0 0.77 0.342 0.771 0.764 0.002 0.415-0.348 0.772-0.764 0.779zM7.415 19.86c-0.362-0.007-0.64-0.292-0.64-0.659 0.001-0.37 0.274-0.645 0.644-0.645 0.368 0 0.652 0.274 0.659 0.639 0.007 0.362-0.301 0.671-0.662 0.664zM8.803 23.53c-0.428 0.003-0.771-0.332-0.778-0.755-0.005-0.419 0.34-0.766 0.765-0.768 0.429-0.002 0.765 0.328 0.768 0.756 0.003 0.43-0.327 0.764-0.756 0.767zM9.337 18.67c-0.247-0.006-0.444-0.212-0.437-0.456 0.006-0.248 0.207-0.438 0.456-0.433 0.252 0.005 0.437 0.199 0.432 0.453-0.002 0.247-0.206 0.444-0.452 0.437zM10.269 20.212c0.29 0.008 0.526 0.253 0.526 0.548 0 0.311-0.233 0.542-0.549 0.536-0.293-0.003-0.533-0.245-0.534-0.536 0-0.296 0.266-0.556 0.557-0.548zM9.87 22.274c0.006-0.356 0.282-0.624 0.64-0.624 0.365-0.001 0.645 0.28 0.643 0.645-0.001 0.364-0.286 0.641-0.652 0.637-0.364-0.002-0.638-0.289-0.631-0.657zM11.122 24.724c-0.427-0.007-0.757-0.348-0.752-0.775s0.342-0.756 0.772-0.751c0.428 0.005 0.758 0.343 0.752 0.771-0.007 0.427-0.348 0.762-0.772 0.756zM11.363 21.58c0.008-0.296 0.247-0.524 0.547-0.518 0.297 0.003 0.525 0.238 0.523 0.537-0.002 0.294-0.244 0.535-0.532 0.536-0.298 0-0.544-0.256-0.537-0.556zM11.972 22.981c-0.002-0.366 0.278-0.648 0.643-0.648 0.366 0 0.644 0.28 0.64 0.647-0.002 0.366-0.284 0.643-0.651 0.638-0.356-0.007-0.63-0.285-0.632-0.637zM13.71 25.148c-0.413-0.008-0.764-0.358-0.772-0.771-0.009-0.42 0.349-0.778 0.778-0.78 0.439 0 0.772 0.333 0.771 0.774-0.001 0.431-0.356 0.786-0.776 0.776zM14.814 23.621c-0.357-0.005-0.652-0.298-0.649-0.651 0.002-0.351 0.302-0.646 0.657-0.647 0.365-0.001 0.667 0.303 0.659 0.667-0.008 0.354-0.304 0.635-0.667 0.631zM14.984 21.602c-0.005-0.292 0.252-0.547 0.552-0.548 0.313 0 0.543 0.23 0.54 0.547-0.003 0.3-0.262 0.556-0.55 0.547-0.282-0.009-0.536-0.264-0.542-0.545zM16.302 24.731c-0.42-0.002-0.77-0.353-0.771-0.77-0.001-0.422 0.343-0.765 0.768-0.768 0.432-0.003 0.772 0.327 0.775 0.754 0.005 0.436-0.342 0.787-0.773 0.784zM16.936 22.936c-0.365 0.002-0.655-0.274-0.663-0.636-0.008-0.356 0.282-0.651 0.643-0.656 0.364-0.005 0.655 0.276 0.659 0.636 0.007 0.364-0.277 0.653-0.638 0.656zM17.173 21.295c-0.293-0.001-0.536-0.244-0.54-0.533-0.003-0.294 0.262-0.556 0.552-0.55 0.3 0.006 0.539 0.261 0.532 0.565-0.008 0.298-0.241 0.521-0.544 0.518zM17.643 18.231c-0.006-0.244 0.194-0.447 0.441-0.451 0.254-0.005 0.447 0.182 0.451 0.434 0.005 0.248-0.189 0.449-0.436 0.453-0.246 0.007-0.452-0.193-0.456-0.437zM18.642 23.53c-0.427 0.001-0.765-0.335-0.766-0.76s0.337-0.763 0.764-0.762c0.432 0 0.764 0.33 0.764 0.759 0 0.431-0.332 0.763-0.762 0.763zM19.364 19.203c0-0.356 0.296-0.645 0.656-0.643 0.349 0.001 0.637 0.282 0.643 0.631 0.009 0.353-0.286 0.652-0.643 0.656-0.359 0.001-0.656-0.29-0.656-0.645zM20.499 21.688c-0.414 0.006-0.772-0.348-0.775-0.764-0.006-0.419 0.341-0.768 0.763-0.772 0.425-0.002 0.772 0.336 0.775 0.758 0.002 0.419-0.344 0.772-0.763 0.778zM21.672 19.362c-0.415-0.010-0.764-0.358-0.768-0.772-0.007-0.424 0.349-0.78 0.778-0.78 0.438 0.001 0.771 0.336 0.768 0.778 0 0.43-0.358 0.783-0.778 0.774zM22.094 16.772c-0.42 0.003-0.787-0.369-0.778-0.789 0.009-0.421 0.357-0.755 0.784-0.752 0.428 0.001 0.759 0.338 0.758 0.768 0 0.42-0.345 0.77-0.765 0.773z"></path>
</symbol>
<symbol id="teicon-doi" viewBox="0 0 32 32">
<title>doi</title>
<path d="M8.24 14.148c-0.538 0-1.037 0.391-1.382 0.798-0.28 0.329-0.42 0.837-0.42 1.26s0.159 0.893 0.439 1.222c0.34 0.406 0.707 0.685 1.251 0.685 0.489 0 1.070-0.205 1.405-0.54 0.34-0.335 0.623-0.897 0.623-1.386 0-0.483-0.133-1.062-0.473-1.396-0.34-0.341-0.959-0.642-1.442-0.642zM17.902 14.281c-0.56 0-1.016 0.22-1.367 0.66-0.285 0.353-0.428 0.756-0.428 1.208 0 0.458 0.143 0.863 0.428 1.216 0.351 0.44 0.807 0.66 1.367 0.66 0.5 0 0.922-0.18 1.268-0.539 0.346-0.365 0.519-0.811 0.519-1.338 0-0.521-0.176-0.961-0.527-1.321-0.346-0.365-0.766-0.548-1.26-0.548zM16.008 2.28c-7.578 0-13.721 6.143-13.721 13.721s6.143 13.721 13.721 13.721 13.721-6.143 13.721-13.721c0-7.578-6.143-13.721-13.721-13.721zM12.753 20.194h-2.541v-1.035c-0.258 0.324-0.865 0.654-1.129 0.802-0.461 0.258-1.087 0.426-1.675 0.426-0.95 0-1.795-0.3-2.536-0.953-0.884-0.78-1.299-1.971-1.299-3.256 0-1.307 0.453-2.35 1.359-3.129 0.719-0.62 1.599-1.117 2.532-1.117 0.543 0 1.214 0.049 1.691 0.279 0.275 0.132 0.766 0.442 1.057 0.744v-5.45h2.541v12.689zM21.451 19.025c-0.845 0.973-2.029 1.46-3.549 1.46-1.526 0-2.712-0.487-3.558-1.46-0.697-0.799-1.046-1.781-1.046-2.945 0-1.048 0.351-1.978 1.054-2.789 0.851-0.979 2.062-1.468 3.632-1.468 1.444 0 2.597 0.489 3.459 1.468 0.703 0.799 1.054 1.752 1.054 2.858 0 1.118-0.349 2.076-1.046 2.876zM23.596 8.003c0.296-0.296 0.656-0.445 1.079-0.445s0.782 0.148 1.079 0.445c0.296 0.291 0.445 0.648 0.445 1.071 0 0.428-0.148 0.791-0.445 1.087-0.291 0.291-0.651 0.436-1.079 0.436-0.423 0-0.782-0.148-1.079-0.445-0.291-0.296-0.436-0.656-0.436-1.079s0.145-0.78 0.436-1.071zM26.026 20.188h-2.701v-8.069h2.701v8.069z"></path>
</symbol>
<symbol id="teicon-doi2" viewBox="0 0 27 32">
<title>doi2</title>
<path d="M15.039 13.215c-1.047 0-1.854 0.326-2.421 0.979-0.469 0.541-0.703 1.16-0.703 1.859 0 0.776 0.232 1.431 0.697 1.964 0.564 0.649 1.354 0.973 2.372 0.973 1.014 0 1.803-0.325 2.366-0.973 0.465-0.533 0.697-1.172 0.697-1.917 0-0.738-0.234-1.373-0.703-1.906-0.575-0.653-1.343-0.979-2.306-0.979zM15.829 16.992c-0.231 0.239-0.512 0.359-0.845 0.359-0.373 0-0.677-0.147-0.911-0.44-0.19-0.236-0.285-0.506-0.285-0.811 0-0.301 0.095-0.57 0.285-0.805 0.234-0.294 0.538-0.44 0.911-0.44 0.329 0 0.609 0.122 0.84 0.365 0.234 0.239 0.351 0.533 0.351 0.88 0 0.351-0.115 0.649-0.346 0.892zM9.857 13.971c-0.194-0.201-0.522-0.408-0.705-0.496-0.318-0.154-0.765-0.186-1.128-0.186-0.622 0-1.208 0.331-1.688 0.745-0.604 0.52-0.906 1.215-0.906 2.086 0 0.856 0.277 1.651 0.866 2.171 0.494 0.436 1.058 0.636 1.691 0.636 0.392 0 0.809-0.112 1.117-0.284 0.176-0.099 0.58-0.319 0.752-0.535v0.69h1.694v-8.459h-1.694v3.633zM9.403 17.049c-0.223 0.223-0.611 0.36-0.936 0.36-0.362 0-0.607-0.186-0.834-0.456-0.187-0.22-0.293-0.533-0.293-0.815s0.093-0.62 0.28-0.84c0.231-0.271 0.563-0.532 0.922-0.532 0.322 0 0.735 0.201 0.961 0.428 0.227 0.223 0.315 0.609 0.315 0.931 0 0.326-0.189 0.701-0.416 0.924zM18.599 18.792h1.801v-5.379h-1.801v5.379zM18.78 10.669c-0.194 0.194-0.291 0.432-0.291 0.714s0.097 0.522 0.291 0.719c0.198 0.198 0.437 0.296 0.719 0.296 0.285 0 0.525-0.097 0.719-0.291 0.198-0.198 0.297-0.439 0.297-0.725 0-0.282-0.099-0.52-0.297-0.714-0.198-0.198-0.437-0.296-0.719-0.296s-0.522 0.099-0.719 0.296zM25.932 3.79c-1.006-1.007-2.218-1.51-3.636-1.51h-17.151c-1.418 0-2.628 0.503-3.636 1.51-1.007 1.005-1.51 2.218-1.51 3.636v17.151c0 1.418 0.503 2.631 1.51 3.638 1.007 1.003 2.22 1.508 3.636 1.508h17.151c1.418 0 2.63-0.505 3.636-1.51 1.007-1.007 1.511-2.218 1.511-3.636v-17.151c0-1.418-0.504-2.631-1.511-3.636zM13.721 25.148c-5.052 0-9.147-4.096-9.147-9.147s4.095-9.147 9.147-9.147 9.147 4.095 9.147 9.147c0 5.052-4.095 9.147-9.147 9.147z"></path>
</symbol>
<symbol id="teicon-python" viewBox="0 0 32 32">
<title>python</title>
<path d="M15.88 0.929c-1.249 0.006-2.442 0.112-3.491 0.298-3.092 0.546-3.653 1.689-3.653 3.798v2.785h7.306v0.928h-10.048c-2.123 0-3.983 1.276-4.564 3.704-0.671 2.783-0.701 4.52 0 7.426 0.519 2.163 1.76 3.704 3.883 3.704h2.512v-3.338c0-2.412 2.087-4.539 4.564-4.539h7.298c2.031 0 3.653-1.673 3.653-3.713v-6.957c0-1.98-1.67-3.467-3.653-3.798-1.255-0.209-2.557-0.304-3.806-0.298zM11.929 3.168c0.755 0 1.371 0.626 1.371 1.397 0 0.767-0.616 1.388-1.371 1.388-0.757 0-1.371-0.621-1.371-1.388 0-0.77 0.614-1.397 1.371-1.397z"></path>
<path d="M24.251 8.737v3.244c0 2.515-2.133 4.632-4.564 4.632h-7.298c-1.999 0-3.653 1.711-3.653 3.713v6.957c0 1.98 1.722 3.145 3.653 3.713 2.313 0.68 4.531 0.803 7.298 0 1.839-0.533 3.653-1.604 3.653-3.713v-2.785h-7.298v-0.928h10.951c2.123 0 2.915-1.481 3.653-3.704 0.763-2.289 0.73-4.49 0-7.426-0.525-2.114-1.527-3.704-3.653-3.704h-2.742zM20.147 26.356c0.757 0 1.371 0.621 1.371 1.388 0 0.77-0.614 1.397-1.371 1.397-0.755 0-1.371-0.626-1.371-1.397 0-0.767 0.616-1.388 1.371-1.388z"></path>
</symbol>
<symbol id="teicon-antimony" viewBox="0 0 32 32">
<title>antimony</title>
<path d="M16.005 0.388c-2.248 0-3.907 1.902-3.907 3.907 0 1.349 0.691 3.077 2.835 3.7l0.035 9.751c0 0-2.766-1.279-2.766-5.359 0-2.248-1.902-4.253-3.942-4.253s-3.423 1.66-3.423 1.66c0 0 1.556-0.691 3.423 0.45s1.279 2.904 2.282 5.947c1.003 3.043 4.357 4.288 4.357 4.288v3.423h-5.429c-1.072 0-1.037 2.109 0 2.109h5.463v4.91c0 1.176 2.075 1.106 2.075 0v-4.841h5.532c1.003 0 1.037-2.213 0-2.213h-5.463v-3.458c0 0 1.639-0.245 3.147-1.971 2.476-2.835 1.167-5.955 3.147-7.849 1.804-1.725 3.942-0.657 3.942-0.657s-2.213-1.694-3.319-1.694c-1.106 0-4.115 0.519-4.115 4.115 0 3.976-2.766 5.221-2.766 5.221v-9.613c1.4-0.352 2.749-2.040 2.749-3.717s-1.608-3.855-3.855-3.855zM16.113 2.839c0.851 0 1.54 0.69 1.54 1.54s-0.69 1.54-1.54 1.54c-0.851-0-1.54-0.69-1.54-1.54s0.69-1.54 1.54-1.54z"></path>
</symbol>
<symbol id="teicon-combine" viewBox="0 0 32 32">
<title>combine</title>
<path d="M14.114 25.697c-2.4-1.012-3.317-3.176-3.317-4.87 0-1.906 1.202-4.214 3.953-5.105l-0.024-0.8 2 1.318-1.976 1.365v-0.471c0 0-2.552 0.841-2.552 3.703 0 2.438 1.941 3.355 1.941 3.355z"></path>
<path d="M17.361 15.721c2.941 0.823 3.976 3.459 3.976 5.152 0 1.788-1.037 4.497-4.588 5.176l0.024 0.706-2-1.318 1.976-1.365v0.588c0 0 3.235-0.512 3.235-3.82 0-2.908-2.646-3.685-2.646-3.685z"></path>
<path d="M30.333 11.874v0.976l-28.528-0.031v-0.85l-1.452 1.314v15.265h31.451v-15.202l-1.471-1.471zM1.677 14.281h28.754v13.059h-28.754v-13.059z"></path>
<path d="M21.577 5.083c-0.296 0-0.592 0.089-0.859 0.355s-1.599 1.599-1.599 1.599h-14.185c-0.326 0-0.622 0.326-0.622 0.592v1.508h16.515c0.211-0.211 1.205-1.205 1.446-1.446 0.363-0.362 0.828-0.509 1.229-0.509h4.383v-1.537c0-0.178-0.178-0.563-0.592-0.563h-5.715z"></path>
<path d="M19.565 2.487c-0.296 0-0.592 0.089-0.859 0.355l-1.599 1.599h-10.246c-0.326 0-0.622 0.326-0.622 0.592v1.481h12.663c0.211-0.211 1.205-1.205 1.446-1.446 0.363-0.362 0.828-0.509 1.229-0.509h4.296v-1.51c0-0.178-0.178-0.563-0.592-0.563h-5.715z"></path>
<path d="M2.329 12.297c0 0 0-1.777 0-2.043s0.296-0.592 0.622-0.592c0.326 0 18.094 0 18.094 0s1.333-1.333 1.599-1.599c0.267-0.267 0.563-0.355 0.859-0.355s5.301 0 5.715 0c0.415 0 0.592 0.385 0.592 0.563s0 4.057 0 4.057z"></path>
</symbol>
<symbol id="teicon-sbml" viewBox="0 0 32 32">
<title>sbml</title>
<path d="M29.248 16.485c-0.021-0.701 0.118-1.18 0.515-1.709 1.078-1.434 1.566-3.292 1.239-5.275-0.735-3.924-3.776-6.826-7.834-7.544-1.814-0.276-3.501-0.011-4.935 0.875-1.474 0.91-3.099 2.898-3.099 6.272 0 1.768-0.435 3.177-1.448 4.263-0.824 0.691-2.028 1.411-3.865 1.422-3.093 0.020-4.69-2.385-4.372-4.807 0.431-2.641 2.598-4.66 5.335-5.046 0.927-0.101 1.797 0.051 2.559 0.34 0.601 0.227 1.084-0.060 1.392-0.511 0.402-0.587 0.345-1.559-0.851-2.149-1.275-0.631-2.75-0.77-4.305-0.534-4.057 0.719-7.096 3.62-7.832 7.544-0.327 1.983 0.17 3.789 1.239 5.275 1.69 2.351 4.295 3.008 5.914 3.311 3.558 0.666 5.108 2.598 5.305 5.344 0.111 2.717-1.908 4.197-4.266 3.783-2.34-0.474-4.171-2.406-4.636-4.798-0.179-1.046 0.037-1.991 0.454-2.779 0.245-0.463-0.128-0.993-0.88-1.405-0.793-0.434-1.545-0.545-1.859-0.123-0.906 1.216-1.27 3.093-0.908 4.93 0.833 3.755 3.712 6.57 7.579 7.392 1.78 0.345 3.187-0.019 4.85-0.754 0.96-0.425 2.513-0.387 3.73 0.145 1.415 0.619 3.030 1.048 4.81 0.763 3.985-0.712 7.010-3.52 7.829-7.386 0.353-1.881-0.117-3.562-1.097-5.094-0.246-0.387-0.565-0.854-0.565-1.747zM27.61 22.59c-0.367 2.532-2.431 4.482-5.058 4.853-2.618 0.293-4.83-1.359-4.834-4.152 0.086-2.798 2.611-5.263 5.551-5.378 2.897-0.031 4.629 2.12 4.341 4.677zM23.901 13.828c-2.907-0.111-5.438-2.576-5.548-5.343-0.021-2.737 2.176-4.336 4.791-4.053 2.594 0.366 4.649 2.284 5.055 4.791 0.329 2.501-1.381 4.624-4.299 4.604z"></path>
</symbol>
<symbol id="teicon-telogo" viewBox="0 0 32 32">
<title>telogo</title>
<path d="M28.987 3.865l-28.417 0.004 6.292 11.244c-2.113-0.043-5.714-0.116-5.714-0.116l-0.051 2.964 7.261-0.176 6.425 11.475 6.601-11.801 1.992-0.047c-0.918 4 1.302 6.114 4.086 6.035 2.718-0.077 4.335-1.945 4.335-4.356s-2.115-4.234-4.313-3.238c-2.199 0.996-1.442 3.769 0.086 3.769s2.484-1.303 1.388-2.532c2.044 0.548 1.566 4.198-1.486 4.198s-2.15-3.018-1.966-3.958c0.184-0.94-0.204-1.868-1.101-1.868-0.713 0-1.244-0.020-1.885-0.034l0.004-0.009 6.464-11.557z"></path>
</symbol>
<symbol id="teicon-floppy" viewBox="0 0 32 32">
<title>floppy</title>
<path d="M28 0h-28v32h32v-28l-4-4zM16 4h4v8h-4v-8zM28 28h-24v-24h2v10h18v-10h2.343l1.657 1.657v22.343z"></path>
</symbol>
</defs>
</svg>
