<svg style="position: absolute; width: 0; height: 0; overflow: hidden;" version="1.1" xmlns="http://www.w3.org/2000/svg" xmlns:xlink="http://www.w3.org/1999/xlink">
<defs>
<symbol id="teicon-python" viewBox="0 0 32 32">
<title>python</title>
<path d="M15.88 0.929c-1.249 0.006-2.442 0.112-3.491 0.298-3.092 0.546-3.653 1.689-3.653 3.798v2.785h7.306v0.928h-10.048c-2.123 0-3.983 1.276-4.564 3.704-0.671 2.783-0.701 4.52 0 7.426 0.519 2.163 1.76 3.704 3.883 3.704h2.512v-3.338c0-2.412 2.087-4.539 4.564-4.539h7.298c2.031 0 3.653-1.673 3.653-3.713v-6.957c0-1.98-1.67-3.467-3.653-3.798-1.255-0.209-2.557-0.304-3.806-0.298zM11.929 3.168c0.755 0 1.371 0.626 1.371 1.397 0 0.767-0.616 1.388-1.371 1.388-0.757 0-1.371-0.621-1.371-1.388 0-0.77 0.614-1.397 1.371-1.397z"></path>
<path d="M24.251 8.737v3.244c0 2.515-2.133 4.632-4.564 4.632h-7.298c-1.999 0-3.653 1.711-3.653 3.713v6.957c0 1.98 1.722 3.145 3.653 3.713 2.313 0.68 4.531 0.803 7.298 0 1.839-0.533 3.653-1.604 3.653-3.713v-2.785h-7.298v-0.928h10.951c2.123 0 2.915-1.481 3.653-3.704 0.763-2.289 0.73-4.49 0-7.426-0.525-2.114-1.527-3.704-3.653-3.704h-2.742zM20.147 26.356c0.757 0 1.371 0.621 1.371 1.388 0 0.77-0.614 1.397-1.371 1.397-0.755 0-1.371-0.626-1.371-1.397 0-0.767 0.616-1.388 1.371-1.388z"></path>
</symbol>
<symbol id="teicon-antimony" viewBox="0 0 32 32">
<title>antimony</title>
<path d="M16.005 0.388c-2.248 0-3.907 1.902-3.907 3.907 0 1.349 0.691 3.077 2.835 3.7l0.035 9.751c0 0-2.766-1.279-2.766-5.359 0-2.248-1.902-4.253-3.942-4.253s-3.423 1.66-3.423 1.66c0 0 1.556-0.691 3.423 0.45s1.279 2.904 2.282 5.947c1.003 3.043 4.357 4.288 4.357 4.288v3.423h-5.429c-1.072 0-1.037 2.109 0 2.109h5.463v4.91c0 1.176 2.075 1.106 2.075 0v-4.841h5.532c1.003 0 1.037-2.213 0-2.213h-5.463v-3.458c0 0 1.639-0.245 3.147-1.971 2.476-2.835 1.167-5.955 3.147-7.849 1.804-1.725 3.942-0.657 3.942-0.657s-2.213-1.694-3.319-1.694c-1.106 0-4.115 0.519-4.115 4.115 0 3.976-2.766 5.221-2.766 5.221v-9.613c1.4-0.352 2.749-2.040 2.749-3.717s-1.608-3.855-3.855-3.855zM16.113 2.839c0.851 0 1.54 0.69 1.54 1.54s-0.69 1.54-1.54 1.54c-0.851-0-1.54-0.69-1.54-1.54s0.69-1.54 1.54-1.54z"></path>
</symbol>
<symbol id="teicon-combine" viewBox="0 0 32 32">
<title>combine</title>
<path d="M14.114 25.697c-2.4-1.012-3.317-3.176-3.317-4.87 0-1.906 1.202-4.214 3.953-5.105l-0.024-0.8 2 1.318-1.976 1.365v-0.471c0 0-2.552 0.841-2.552 3.703 0 2.438 1.941 3.355 1.941 3.355z"></path>
<path d="M17.361 15.721c2.941 0.823 3.976 3.459 3.976 5.152 0 1.788-1.037 4.497-4.588 5.176l0.024 0.706-2-1.318 1.976-1.365v0.588c0 0 3.235-0.512 3.235-3.82 0-2.908-2.646-3.685-2.646-3.685z"></path>
<path d="M30.333 11.874v0.976l-28.528-0.031v-0.85l-1.452 1.314v15.265h31.451v-15.202l-1.471-1.471zM1.677 14.281h28.754v13.059h-28.754v-13.059z"></path>
<path d="M21.577 5.083c-0.296 0-0.592 0.089-0.859 0.355s-1.599 1.599-1.599 1.599h-14.185c-0.326 0-0.622 0.326-0.622 0.592v1.508h16.515c0.211-0.211 1.205-1.205 1.446-1.446 0.363-0.362 0.828-0.509 1.229-0.509h4.383v-1.537c0-0.178-0.178-0.563-0.592-0.563h-5.715z"></path>
<path d="M19.565 2.487c-0.296 0-0.592 0.089-0.859 0.355l-1.599 1.599h-10.246c-0.326 0-0.622 0.326-0.622 0.592v1.481h12.663c0.211-0.211 1.205-1.205 1.446-1.446 0.363-0.362 0.828-0.509 1.229-0.509h4.296v-1.51c0-0.178-0.178-0.563-0.592-0.563h-5.715z"></path>
<path d="M2.329 12.297c0 0 0-1.777 0-2.043s0.296-0.592 0.622-0.592c0.326 0 18.094 0 18.094 0s1.333-1.333 1.599-1.599c0.267-0.267 0.563-0.355 0.859-0.355s5.301 0 5.715 0c0.415 0 0.592 0.385 0.592 0.563s0 4.057 0 4.057z"></path>
</symbol>
<symbol id="teicon-sbml" viewBox="0 0 32 32">
<title>sbml</title>
<path d="M29.248 16.485c-0.021-0.701 0.118-1.18 0.515-1.709 1.078-1.434 1.566-3.292 1.239-5.275-0.735-3.924-3.776-6.826-7.834-7.544-1.814-0.276-3.501-0.011-4.935 0.875-1.474 0.91-3.099 2.898-3.099 6.272 0 1.768-0.435 3.177-1.448 4.263-0.824 0.691-2.028 1.411-3.865 1.422-3.093 0.020-4.69-2.385-4.372-4.807 0.431-2.641 2.598-4.66 5.335-5.046 0.927-0.101 1.797 0.051 2.559 0.34 0.601 0.227 1.084-0.060 1.392-0.511 0.402-0.587 0.345-1.559-0.851-2.149-1.275-0.631-2.75-0.77-4.305-0.534-4.057 0.719-7.096 3.62-7.832 7.544-0.327 1.983 0.17 3.789 1.239 5.275 1.69 2.351 4.295 3.008 5.914 3.311 3.558 0.666 5.108 2.598 5.305 5.344 0.111 2.717-1.908 4.197-4.266 3.783-2.34-0.474-4.171-2.406-4.636-4.798-0.179-1.046 0.037-1.991 0.454-2.779 0.245-0.463-0.128-0.993-0.88-1.405-0.793-0.434-1.545-0.545-1.859-0.123-0.906 1.216-1.27 3.093-0.908 4.93 0.833 3.755 3.712 6.57 7.579 7.392 1.78 0.345 3.187-0.019 4.85-0.754 0.96-0.425 2.513-0.387 3.73 0.145 1.415 0.619 3.030 1.048 4.81 0.763 3.985-0.712 7.010-3.52 7.829-7.386 0.353-1.881-0.117-3.562-1.097-5.094-0.246-0.387-0.565-0.854-0.565-1.747zM27.61 22.59c-0.367 2.532-2.431 4.482-5.058 4.853-2.618 0.293-4.83-1.359-4.834-4.152 0.086-2.798 2.611-5.263 5.551-5.378 2.897-0.031 4.629 2.12 4.341 4.677zM23.901 13.828c-2.907-0.111-5.438-2.576-5.548-5.343-0.021-2.737 2.176-4.336 4.791-4.053 2.594 0.366 4.649 2.284 5.055 4.791 0.329 2.501-1.381 4.624-4.299 4.604z"></path>
</symbol>
<symbol id="teicon-telogo" viewBox="0 0 32 32">
<title>telogo</title>
<path d="M28.987 3.865l-28.417 0.004 6.292 11.244c-2.113-0.043-5.714-0.116-5.714-0.116l-0.051 2.964 7.261-0.176 6.425 11.475 6.601-11.801 1.992-0.047c-0.918 4 1.302 6.114 4.086 6.035 2.718-0.077 4.335-1.945 4.335-4.356s-2.115-4.234-4.313-3.238c-2.199 0.996-1.442 3.769 0.086 3.769s2.484-1.303 1.388-2.532c2.044 0.548 1.566 4.198-1.486 4.198s-2.15-3.018-1.966-3.958c0.184-0.94-0.204-1.868-1.101-1.868-0.713 0-1.244-0.020-1.885-0.034l0.004-0.009 6.464-11.557z"></path>
</symbol>
<symbol id="teicon-floppy" viewBox="0 0 32 32">
<title>floppy</title>
<path d="M28 0h-28v32h32v-28l-4-4zM16 4h4v8h-4v-8zM28 28h-24v-24h2v10h18v-10h2.343l1.657 1.657v22.343z"></path>
</symbol>
</defs>
</svg>
