<svg style="position: absolute; width: 0; height: 0; overflow: hidden;" version="1.1" xmlns="http://www.w3.org/2000/svg" xmlns:xlink="http://www.w3.org/1999/xlink">
<defs>
<symbol id="teicon-telogo" viewBox="0 0 32 32">
<title>telogo</title>
<path d="M28.987 3.865l-28.417 0.004 6.292 11.244c-2.113-0.043-5.714-0.116-5.714-0.116l-0.051 2.964 7.261-0.176 6.425 11.475 6.601-11.801 1.992-0.047c-0.918 4 1.302 6.114 4.086 6.035 2.718-0.077 4.335-1.945 4.335-4.356s-2.115-4.234-4.313-3.238c-2.199 0.996-1.442 3.769 0.086 3.769s2.484-1.303 1.388-2.532c2.044 0.548 1.566 4.198-1.486 4.198s-2.15-3.018-1.966-3.958c0.184-0.94-0.204-1.868-1.101-1.868-0.713 0-1.244-0.020-1.885-0.034l0.004-0.009 6.464-11.557z"></path>
</symbol>
</defs>
</svg>
